<svg width="51" height="52" viewBox="0 0 51 52" fill="none" xmlns="http://www.w3.org/2000/svg">
<path d="M25.2873 0L29.8144 6.14396L36.5533 2.57399L37.9632 10.0632L45.5817 9.77859L43.6027 17.1384L50.5874 20.178L45.6076 25.9469L50.5874 31.7287L43.6027 34.7683L45.5817 42.1281L37.9632 41.8306L36.5533 49.3327L29.8144 45.7628L25.2873 51.8938L20.7731 45.7628L14.0341 49.3327L12.6242 41.8306L5.00571 42.1281L6.98472 34.7683L0 31.7287L4.97984 25.9469L0 20.178L6.98472 17.1384L5.00571 9.77859L12.6242 10.0632L14.0341 2.57399L20.7731 6.14396L25.2873 0Z" fill="black"/>
<path d="M12.0939 19.0654L12.0292 26.671L15.4181 26.2182V28.5077L12.0292 28.9604L11.9387 38.6872L9.22241 39.0494L9.4035 17.1122L15.5087 16.2974L15.4828 18.6127L12.0939 19.0654Z" fill="#F0F0F0"/>
<path d="M25.533 19.1042L25.4683 25.9466C25.4554 27.5893 24.951 28.7276 24.0067 29.4778L25.7529 36.8505L23.2953 37.1739L21.782 30.422L19.9323 30.6678L19.8806 37.6266L17.1902 37.9888L17.3713 16.0516L21.9631 15.4437C24.9898 15.0298 25.546 16.2198 25.533 19.1042ZM21.3293 17.8366L20.0229 18.0047L19.9453 28.5206L21.2387 28.3525C22.4546 28.1843 22.8297 27.7575 22.8297 26.3347L22.8944 19.4405C22.8814 18.0048 22.5193 17.6684 21.3293 17.8366Z" fill="#F0F0F0"/>
<path d="M29.9696 16.6855L29.9179 24.1746L33.2939 23.7219L33.268 26.0114L29.892 26.4641L29.8403 33.992L33.2551 33.5393L33.2292 35.8546L27.124 36.6695L27.3051 14.7324L33.4103 13.9175L33.3844 16.2328L29.9696 16.6855Z" fill="#F0F0F0"/>
<path d="M37.9245 15.625L37.8727 23.1141L41.2487 22.6614L41.2228 24.9508L37.8469 25.4036L37.7951 32.9315L41.2099 32.4788L41.184 34.7941L35.0789 35.609L35.2599 13.6718L41.3651 12.8569L41.3392 15.1722L37.9245 15.625Z" fill="#F0F0F0"/>
</svg>
